<?xml version="1.0" encoding="utf-8"?>
<!-- Generator: Adobe Illustrator 18.1.1, SVG Export Plug-In . SVG Version: 6.00 Build 0)  -->
<svg version="1.1" id="Layer_1" xmlns="http://www.w3.org/2000/svg" xmlns:xlink="http://www.w3.org/1999/xlink" x="0px" y="0px"
	 width="16px" height="16px" viewBox="-471 273 16 16" enable-background="new -471 273 16 16" xml:space="preserve">
<g>
	<path fill="#555555" d="M-458.3,276c0-1.1-2.5-2.2-6.3-2.2c-3.8,0-6.4,1-6.4,2.2v1.1l5,5.1v4.8c0,0,0.4,1.2,1.4,1.2
		c1.2,0,1.4-1.2,1.4-1.2v-4.8l4.9-5.1V276z M-464.7,277.2c-3.1,0-4.5-0.7-5.2-1.1c0.7-0.6,2.1-1.1,5.2-1.1c3.1,0,4.5,0.7,5.2,1.1
		C-460.3,276.5-461.7,277.2-464.7,277.2z"/>
</g>
<g>
	<path fill="#555555" d="M-458.4,287c-0.2,0-0.3-0.1-0.4-0.2l-2.7-2.5c-0.3-0.3-0.3-0.7-0.1-1.1c0.2-0.3,0.7-0.4,1-0.1l2.3,2.1
		l2.2-2.1c0.3-0.3,0.7-0.2,1,0.1c0.2,0.3,0.2,0.8-0.1,1.1l-2.7,2.5C-458,287-458.2,287-458.4,287z"/>
</g>
<rect x="-465" y="282" fill="#F69221" width="1" height="5"/>
<polygon fill="#F69221" points="-468,278 -461,278 -464,282 -465,282 "/>
</svg>
