<?xml version="1.0" encoding="iso-8859-1"?>
<!-- Generator: Adobe Illustrator 16.0.3, SVG Export Plug-In . SVG Version: 6.00 Build 0)  -->
<!DOCTYPE svg PUBLIC "-//W3C//DTD SVG 1.1//EN" "http://www.w3.org/Graphics/SVG/1.1/DTD/svg11.dtd">
<svg version="1.1" id="Layer_1" xmlns="http://www.w3.org/2000/svg" xmlns:xlink="http://www.w3.org/1999/xlink" x="0px" y="0px"
	 width="16px" height="16px" viewBox="0 0 16 16" style="enable-background:new 0 0 16 16;" xml:space="preserve">
<g>
	<path d="M15,1c-0.553,0-1,0.447-1,1v0.716C12.491,1.001,10.32,0,8,0C3.589,0,0,3.589,0,8c0,0.553,0.447,1,1,1s1-0.447,1-1
		c0-3.309,2.691-6,6-6c1.723,0,3.334,0.738,4.465,2H12c-0.553,0-1,0.447-1,1s0.447,1,1,1h3c0.553,0,1-0.447,1-1V2
		C16,1.447,15.553,1,15,1z"/>
	<path d="M15,7c-0.553,0-1,0.447-1,1c0,3.309-2.691,6-6,6c-1.723,0-3.334-0.738-4.465-2H4c0.553,0,1-0.447,1-1s-0.447-1-1-1H1
		c-0.553,0-1,0.447-1,1v3c0,0.553,0.447,1,1,1s1-0.447,1-1v-0.716C3.509,14.999,5.68,16,8,16c4.411,0,8-3.589,8-8
		C16,7.447,15.553,7,15,7z"/>
</g>
</svg>
